<svg width="292" height="40" viewBox="0 0 292 40" fill="none" xmlns="http://www.w3.org/2000/svg">
<g clip-path="url(#clip0_5_239)">
<path d="M22.706 11.5394L0 34.2656L5.74452 40.0101L28.4505 17.294L22.706 11.5394Z" fill="white"/>
<path d="M34.195 0L68.4001 34.2656L62.6556 40.0202L28.4505 5.79491L34.195 0Z" fill="white"/>
<path d="M57.2033 0L91.4084 34.2656L85.6639 40L51.4588 5.79491L57.2033 0Z" fill="white"/>
<path d="M289.463 9.18115C291.731 11.4084 291.731 15.0063 291.731 18.2514V28.8435H286.43V18.4631C286.43 16.3165 286.127 14.1698 285.049 13.0108C284.629 12.583 284.119 12.2543 283.556 12.0486C282.993 11.8428 282.391 11.7653 281.794 11.8216C280.912 11.8405 280.056 12.1211 279.335 12.6279C278.516 13.2931 277.971 14.2367 277.803 15.2784C277.615 16.5864 277.537 17.908 277.571 19.229V28.8435H272.31V0H277.571V8.30436C279.043 7.35635 280.77 6.8848 282.52 6.95389C285.049 6.95389 287.468 7.226 289.463 9.18115Z" fill="white"/>
<path d="M270.779 12.1844L265.901 14.3008C265.787 14.0555 265.649 13.8225 265.488 13.6054C265.037 13.0345 264.458 12.5775 263.798 12.2711C263.138 11.9648 262.415 11.8177 261.688 11.8418C258.342 11.8418 256.649 14.8652 256.538 17.8886C256.427 20.9121 258.342 23.9355 261.688 23.9355C262.416 23.962 263.139 23.816 263.799 23.5095C264.46 23.203 265.038 22.7446 265.488 22.1718C265.626 21.9602 265.754 21.7416 265.87 21.5168L270.779 23.6332C270.444 24.2255 270.059 24.7885 269.63 25.3162C268.642 26.4415 267.418 27.3348 266.045 27.9324C264.672 28.5299 263.185 28.817 261.688 28.773C260.195 28.8268 258.708 28.544 257.339 27.9456C255.969 27.3473 254.752 26.4486 253.777 25.3162C252.076 23.2168 251.179 20.5797 251.247 17.8786C251.187 15.1633 252.082 12.513 253.777 10.3905C254.761 9.26867 255.98 8.37733 257.347 7.77988C258.714 7.18243 260.196 6.89354 261.688 6.93374C263.183 6.90144 264.667 7.19377 266.038 7.79056C267.409 8.38734 268.635 9.27439 269.63 10.3905C270.076 10.9457 270.461 11.5471 270.779 12.1844Z" fill="white"/>
<path d="M233.933 19.7833C234.2 20.9844 234.867 22.0592 235.825 22.8318C236.782 23.6044 237.974 24.0291 239.204 24.0363C240.252 24.1082 241.302 23.9384 242.273 23.5399C243.245 23.1415 244.112 22.5252 244.807 21.7385L248.566 24.3487C247.565 25.6528 246.294 26.7261 244.841 27.4956C243.388 28.2652 241.786 28.713 240.145 28.8086C238.503 28.9042 236.86 28.6454 235.328 28.0497C233.795 27.4541 232.409 26.5355 231.262 25.3565C229.617 23.3149 228.736 20.7625 228.773 18.1406C228.697 15.3411 229.594 12.6019 231.313 10.3905C232.328 9.30035 233.558 8.43097 234.924 7.83653C236.29 7.24209 237.764 6.93531 239.254 6.93531C240.744 6.93531 242.218 7.24209 243.585 7.83653C244.951 8.43097 246.18 9.30035 247.196 10.3905C249.302 12.9201 250.068 15.994 249.655 19.7531L233.933 19.7833ZM239.204 11.8216C238.043 11.7937 236.903 12.1402 235.954 12.8099C235.005 13.4796 234.296 14.437 233.933 15.5404H244.152C243.859 14.4584 243.213 13.5052 242.316 12.8317C241.42 12.1581 240.325 11.8027 239.204 11.8216Z" fill="white"/>
<path d="M227.191 11.8519H221.204V19.1484C221.204 21.164 221.275 23.7037 223.815 23.9456C224.939 24.0111 226.066 24.0111 227.191 23.9456V28.7528C223.663 29.1056 218.856 29.0048 216.982 25.4371C216.173 23.579 215.827 21.5525 215.974 19.5314V11.8418H212.447V6.96397H215.974V0.0604668H221.194V6.96397H227.181L227.191 11.8519Z" fill="white"/>
<path d="M205.704 6.93374H210.925V28.8435H205.704V6.93374Z" fill="white"/>
<path d="M205.704 0.0604668H210.925V4.66616H205.704V0.0604668Z" fill="white"/>
<path d="M200.716 6.96397C201.897 6.90056 203.078 7.10021 204.172 7.5485V12.5876C201.633 11.5797 198.66 11.3379 196.876 13.2225C195.945 14.3075 195.459 15.7044 195.515 17.1328V28.8435H190.275V6.96397H195.515V9.26178C196.886 7.85181 198.75 7.02817 200.716 6.96397Z" fill="white"/>
<path d="M188.743 28.8435H183.563V26.3139C181.487 28.6924 179.955 28.8435 177.617 28.8435C173.434 28.8435 170.209 26.3039 170.209 22.4339C170.115 21.185 170.417 19.9383 171.072 18.8708C171.727 17.8034 172.701 16.9695 173.857 16.4878C176.468 15.2986 180.842 14.835 183.563 14.4722C183.22 12.9705 181.95 11.9022 179.531 11.9022C177.626 11.8902 175.782 12.5789 174.351 13.8372L171.328 10.3804C172.452 9.26677 173.789 8.39046 175.259 7.80356C176.729 7.21666 178.302 6.93114 179.884 6.96397C182.097 7.01931 184.227 7.81806 185.931 9.23154C186.86 10.0671 187.588 11.1025 188.059 12.2598C188.531 13.4172 188.733 14.6663 188.652 15.9133L188.743 28.8435ZM182.867 22.1718C183.446 21.0628 183.688 19.8086 183.563 18.5639C182.333 18.7957 180.297 19.2189 178.342 19.6422C176.77 19.9849 175.319 20.7206 175.319 22.1013C175.319 23.482 176.629 23.9859 178.342 23.9859C180.338 23.9355 181.95 23.5021 182.867 22.1718Z" fill="white"/>
<path fill-rule="evenodd" clip-rule="evenodd" d="M148.37 17.6165C148.37 23.5928 152.401 28.8335 158.448 28.8335C160.227 28.8483 161.974 28.3591 163.487 27.4225V29.6095C163.525 30.1123 163.428 30.6163 163.204 31.0684C162.981 31.5205 162.64 31.9043 162.217 32.1794C161.273 32.8004 160.162 33.1202 159.033 33.0965C158.209 33.0953 157.402 32.8725 156.694 32.4515C156.239 32.1284 155.86 31.7085 155.586 31.222L150.748 33.5601C151.686 35.0869 153.044 36.3114 154.659 37.0874C156.032 37.6653 157.502 37.9798 158.992 38.0146C161.037 38.107 163.068 37.6401 164.868 36.6642C167.478 35.2129 168.707 32.905 168.707 29.68V6.96397H163.487V8.2842C161.954 7.40432 160.215 6.94862 158.448 6.96397C152.583 6.96397 148.37 11.6201 148.37 17.6165ZM158.448 11.8619C161.532 11.8619 163.487 14.5729 163.487 17.6165C163.487 20.6601 161.814 23.9053 158.448 23.9053C155.082 23.9053 153.661 20.7508 153.661 17.6165C153.661 14.4822 155.384 11.8619 158.428 11.8619H158.448Z" fill="white"/>
<path d="M136.246 28.8335C129.937 28.8335 125.684 23.5928 125.684 17.6165C125.684 16.2269 125.958 14.8508 126.49 13.567C127.021 12.2831 127.801 11.1165 128.783 10.1339C129.766 9.15128 130.933 8.37182 132.217 7.84002C133.5 7.30823 134.876 7.03452 136.266 7.03452C137.656 7.03452 139.032 7.30823 140.316 7.84002C141.6 8.37182 142.766 9.15128 143.749 10.1339C144.731 11.1165 145.511 12.2831 146.043 13.567C146.574 14.8508 146.848 16.2269 146.848 17.6165C146.838 23.5928 142.525 28.8335 136.246 28.8335ZM141.487 17.6165C141.487 14.5931 139.471 11.8619 136.246 11.8619C133.021 11.8619 131.015 14.583 131.015 17.6165C131.015 20.65 132.819 23.9053 136.286 23.9053C139.753 23.9053 141.487 20.7609 141.487 17.6165Z" fill="white"/>
<path d="M113.792 0V23.9758H125.684V28.8738H108.551V0H113.792Z" fill="white"/>
<path d="M284.203 39.9899C283.844 39.9961 283.487 39.9246 283.159 39.7802C282.83 39.6358 282.536 39.422 282.298 39.1534C281.889 38.6507 281.674 38.0175 281.693 37.3696C281.676 36.719 281.89 36.0833 282.298 35.5757C282.537 35.309 282.831 35.0971 283.16 34.9544C283.489 34.8118 283.844 34.7418 284.203 34.7493C284.561 34.7391 284.918 34.8079 285.247 34.9507C285.576 35.0935 285.87 35.3068 286.107 35.5757C286.505 36.0871 286.721 36.7166 286.721 37.3646C286.721 38.0126 286.505 38.6421 286.107 39.1534C285.871 39.4247 285.578 39.6403 285.249 39.785C284.919 39.9296 284.562 39.9996 284.203 39.9899ZM285.12 38.3976C285.306 38.0853 285.405 37.7283 285.405 37.3646C285.405 37.0009 285.306 36.6439 285.12 36.3316C285.011 36.1934 284.872 36.083 284.712 36.0094C284.553 35.9358 284.378 35.9012 284.203 35.9083C284.029 35.9011 283.855 35.9358 283.698 36.0095C283.54 36.0831 283.402 36.1936 283.296 36.3316C283.117 36.6466 283.023 37.0025 283.023 37.3646C283.023 37.7266 283.117 38.0825 283.296 38.3976C283.404 38.5337 283.542 38.6429 283.699 38.7163C283.857 38.7898 284.029 38.8256 284.203 38.8209C284.373 38.821 284.541 38.7831 284.694 38.7098C284.848 38.6366 284.983 38.5299 285.089 38.3976H285.12Z" fill="white"/>
<path d="M280.03 33.0864H281.28V34.195H280.03V33.0864ZM280.03 34.7392H281.28V39.9899H280.03V34.7392Z" fill="white"/>
<path d="M279.647 35.7168H278.216V37.6518C278.186 37.9397 278.227 38.2306 278.337 38.4984C278.394 38.582 278.469 38.6523 278.556 38.7045C278.643 38.7567 278.74 38.7895 278.841 38.8007C279.109 38.8303 279.379 38.8303 279.647 38.8007V39.9295C279.169 40.035 278.674 40.035 278.196 39.9295C277.987 39.8891 277.788 39.8044 277.615 39.681C277.441 39.5576 277.295 39.3983 277.188 39.2139C276.997 38.752 276.917 38.2512 276.956 37.7526V35.737H276.14V34.7292H276.987V33.0864H278.236V34.7493H279.667L279.647 35.7168Z" fill="white"/>
<path d="M276.14 35.999L274.971 36.5029L274.87 36.3316C274.76 36.1984 274.621 36.0912 274.464 36.0176C274.307 35.944 274.136 35.9059 273.963 35.9059C273.79 35.9059 273.619 35.944 273.462 36.0176C273.305 36.0912 273.167 36.1984 273.056 36.3316C272.87 36.6439 272.771 37.0009 272.771 37.3646C272.771 37.7283 272.87 38.0853 273.056 38.3976C273.169 38.5277 273.308 38.6321 273.465 38.7037C273.621 38.7752 273.791 38.8123 273.963 38.8123C274.135 38.8123 274.305 38.7752 274.462 38.7037C274.618 38.6321 274.758 38.5277 274.87 38.3976L274.961 38.2363L276.14 38.7402C276.055 38.8841 275.961 39.0222 275.858 39.1534C275.621 39.4205 275.329 39.6327 275.002 39.7754C274.674 39.9181 274.32 39.9879 273.963 39.9798C273.606 39.9914 273.25 39.9232 272.923 39.7802C272.595 39.6373 272.303 39.4232 272.069 39.1534C271.671 38.6421 271.454 38.0126 271.454 37.3646C271.454 36.7166 271.671 36.0871 272.069 35.5757C272.303 35.3054 272.594 35.0909 272.922 34.9479C273.25 34.805 273.606 34.7371 273.963 34.7493C274.32 34.7399 274.675 34.8091 275.002 34.9519C275.33 35.0947 275.622 35.3076 275.858 35.5757C275.967 35.7063 276.061 35.8482 276.14 35.999Z" fill="white"/>
<path d="M269.791 34.7392H271.101V39.9899H270.003V39.3046C270.003 39.3046 269.952 39.3046 269.942 39.3752C269.609 39.7315 269.149 39.9416 268.662 39.9597C268.363 39.9954 268.059 39.9662 267.772 39.874C267.485 39.7819 267.222 39.6289 266.999 39.4255C266.54 38.7993 266.344 38.0176 266.455 37.2487V34.7392H267.725V37.2285C267.681 37.686 267.795 38.1447 268.047 38.5286C268.15 38.6309 268.273 38.7099 268.409 38.7604C268.544 38.8108 268.689 38.8314 268.834 38.8209C269.043 38.8146 269.246 38.7481 269.418 38.6294C269.618 38.4723 269.751 38.2456 269.791 37.9945C269.831 37.6803 269.848 37.3637 269.841 37.0471L269.791 34.7392Z" fill="white"/>
<path d="M265.195 34.7594C265.477 34.7402 265.76 34.785 266.022 34.8904V36.0494C265.715 35.9404 265.389 35.8958 265.064 35.9184C264.766 35.9312 264.483 36.0532 264.268 36.261C264.047 36.5218 263.931 36.8564 263.946 37.1983V39.9899H262.686V34.7594H263.946V35.1323C264.319 34.8925 264.752 34.7632 265.195 34.7594Z" fill="white"/>
<path d="M262.303 35.7168H260.872V37.6518C260.841 37.9397 260.883 38.2306 260.993 38.4984C261.05 38.582 261.125 38.6523 261.212 38.7045C261.299 38.7567 261.396 38.7895 261.497 38.8007C261.765 38.8305 262.035 38.8305 262.303 38.8007V39.9295C261.825 40.035 261.33 40.035 260.852 39.9295C260.642 39.8904 260.443 39.8062 260.269 39.6826C260.095 39.5591 259.95 39.3991 259.844 39.2139C259.649 38.7528 259.566 38.252 259.602 37.7526V35.737H258.755V34.7292H259.602V33.0864H260.852V34.7493H262.283L262.303 35.7168Z" fill="white"/>
<path d="M258.735 36.1905L257.566 36.4928C257.491 36.2852 257.349 36.1082 257.163 35.9889C256.968 35.8917 256.756 35.8367 256.538 35.8277C256.359 35.822 256.181 35.8529 256.014 35.9184C255.893 35.9184 255.752 36.0897 255.752 36.2207C255.752 36.3517 255.752 36.4021 255.944 36.4626L256.296 36.5735L257.213 36.8254C257.575 36.9015 257.917 37.0488 258.221 37.2588C258.405 37.3923 258.554 37.5664 258.659 37.7674C258.764 37.9685 258.821 38.191 258.826 38.4177C258.825 38.6676 258.76 38.913 258.636 39.1302C258.512 39.3474 258.335 39.5289 258.12 39.6573C257.624 39.9293 257.055 40.0413 256.492 39.9782C255.93 39.9151 255.4 39.6798 254.976 39.3046C254.715 38.9977 254.535 38.6305 254.452 38.2363L255.621 37.9541C255.637 38.1647 255.71 38.367 255.833 38.5387C255.965 38.6684 256.123 38.768 256.297 38.8306C256.471 38.8932 256.656 38.9174 256.841 38.9015C257.076 38.9009 257.308 38.842 257.516 38.7302C257.572 38.699 257.619 38.6538 257.653 38.5991C257.686 38.5444 257.705 38.4819 257.707 38.4177C257.704 38.3445 257.678 38.274 257.633 38.2162C257.588 38.1584 257.526 38.1161 257.455 38.0952L256.992 37.9541C256.044 37.682 255.883 37.6417 255.732 37.5813C255.423 37.4684 255.146 37.2815 254.926 37.037C254.807 36.8608 254.729 36.6602 254.698 36.4499C254.667 36.2395 254.683 36.0249 254.746 35.8218C254.809 35.6188 254.917 35.4324 255.061 35.2764C255.205 35.1204 255.383 34.9988 255.581 34.9206C255.925 34.7777 256.297 34.7123 256.669 34.7292C257.037 34.731 257.399 34.8172 257.727 34.9811C258.199 35.2488 258.557 35.6786 258.735 36.1905Z" fill="white"/>
<path d="M253.525 35.2734C253.973 35.9011 254.164 36.6762 254.059 37.4402V39.9899H252.799V37.5107C252.842 37.0487 252.725 36.586 252.467 36.2006C252.363 36.1001 252.24 36.0229 252.104 35.9742C251.969 35.9255 251.824 35.9065 251.681 35.9184C251.471 35.9197 251.266 35.9867 251.096 36.1099C250.896 36.2669 250.763 36.4937 250.723 36.7448C250.683 37.0589 250.666 37.3755 250.673 37.6921V40H249.413V34.7493H250.673V35.1625C251.092 34.8601 251.601 34.7068 252.118 34.7269C252.635 34.747 253.13 34.9393 253.525 35.2734Z" fill="white"/>
<path d="M291.187 35.2734C291.645 35.8965 291.84 36.6745 291.731 37.4402V39.9899H290.461V37.5107C290.504 37.0487 290.387 36.586 290.129 36.2006C290.027 36.1014 289.905 36.025 289.771 35.9763C289.637 35.9277 289.495 35.9079 289.353 35.9184C289.14 35.9215 288.933 35.9882 288.758 36.1099C288.562 36.2686 288.432 36.4952 288.395 36.7448C288.346 37.058 288.326 37.3752 288.335 37.6921V40H287.075V34.7493H288.335V35.1625C288.754 34.8601 289.263 34.7068 289.78 34.7269C290.297 34.747 290.792 34.9393 291.187 35.2734Z" fill="white"/>
<path d="M246.49 39.9899C246.132 39.9994 245.776 39.9304 245.447 39.7876C245.117 39.6449 244.824 39.4318 244.586 39.1635C244.174 38.6581 243.96 38.0209 243.981 37.3696C243.963 36.7188 244.177 36.0829 244.586 35.5757C244.825 35.3095 245.12 35.0979 245.448 34.9554C245.777 34.8128 246.132 34.7425 246.49 34.7493C246.847 34.7399 247.202 34.8091 247.53 34.9519C247.857 35.0947 248.149 35.3076 248.385 35.5757C248.803 36.0779 249.022 36.7164 249 37.3696C249.019 38.0224 248.801 38.66 248.385 39.1635C248.15 39.4321 247.858 39.6455 247.53 39.7883C247.203 39.9312 246.848 40 246.49 39.9899ZM247.397 38.3976C247.598 38.1008 247.696 37.7473 247.68 37.3898C247.692 37.0328 247.593 36.6808 247.397 36.382C247.284 36.2516 247.144 36.1471 246.986 36.0754C246.829 36.0038 246.658 35.9668 246.485 35.9668C246.312 35.9668 246.142 36.0038 245.984 36.0754C245.827 36.1471 245.687 36.2516 245.573 36.382C245.381 36.6817 245.286 37.0338 245.301 37.3898C245.281 37.7462 245.377 38.0996 245.573 38.3976C245.686 38.5294 245.826 38.6353 245.983 38.7079C246.141 38.7805 246.312 38.8181 246.485 38.8181C246.659 38.8181 246.83 38.7805 246.988 38.7079C247.145 38.6353 247.285 38.5294 247.397 38.3976Z" fill="white"/>
<path d="M243.568 35.999L242.399 36.513C242.375 36.4506 242.341 36.3927 242.298 36.3416C242.19 36.2055 242.052 36.0964 241.894 36.0229C241.737 35.9494 241.564 35.9136 241.391 35.9184C241.219 35.9136 241.048 35.9495 240.892 36.023C240.736 36.0965 240.6 36.2057 240.494 36.3416C240.296 36.6402 240.195 36.9917 240.202 37.3495C240.193 37.7075 240.295 38.0596 240.494 38.3573C240.599 38.4932 240.736 38.6018 240.892 38.6737C241.048 38.7457 241.219 38.7789 241.391 38.7705C241.564 38.7788 241.737 38.7457 241.894 38.6738C242.052 38.6019 242.19 38.4934 242.298 38.3573C242.335 38.3116 242.366 38.2606 242.389 38.2061L243.568 38.71C243.49 38.8527 243.399 38.9877 243.296 39.1131C243.059 39.3831 242.765 39.5972 242.436 39.7401C242.107 39.883 241.75 39.9511 241.391 39.9395C241.033 39.9532 240.677 39.886 240.349 39.7429C240.021 39.5998 239.729 39.3846 239.496 39.1131C239.088 38.6099 238.873 37.9771 238.891 37.3293C238.879 36.6793 239.093 36.0451 239.496 35.5354C239.733 35.2684 240.025 35.0562 240.352 34.9134C240.68 34.7707 241.034 34.701 241.391 34.709C241.837 34.6785 242.281 34.7809 242.669 35.0034C243.056 35.2259 243.369 35.5583 243.568 35.9587V35.999Z" fill="white"/>
</g>
<defs>
<clipPath id="clip0_5_239">
<rect width="292" height="40" fill="white"/>
</clipPath>
</defs>
</svg>
