<svg width="356" height="48" viewBox="0 0 356 48" fill="none" xmlns="http://www.w3.org/2000/svg">
<g clip-path="url(#clip0_56_75)">
<path d="M27.6826 13.8477L0 41.119L7.00359 48.0124L34.6862 20.7532L27.6826 13.8477Z" fill="#14213D"/>
<path d="M41.6898 0L83.3919 41.1187L76.3883 48.0242L34.6862 6.95389L41.6898 0Z" fill="#14213D"/>
<path d="M69.741 0L111.443 41.1187L104.44 48L62.7375 6.95389L69.741 0Z" fill="#14213D"/>
<path d="M352.907 11.0174C355.672 13.6901 355.672 18.0076 355.672 21.9017V34.6122H349.209V22.1557C349.209 19.5797 348.84 17.0038 347.526 15.613C347.014 15.0996 346.392 14.7051 345.705 14.4583C345.019 14.2114 344.285 14.1184 343.557 14.1859C342.482 14.2086 341.439 14.5454 340.559 15.1534C339.56 15.9517 338.896 17.084 338.691 18.3341C338.462 19.9037 338.367 21.4896 338.409 23.0748V34.6122H331.995V0H338.409V9.96523C340.203 8.82762 342.309 8.26176 344.442 8.34467C347.526 8.34467 350.475 8.6712 352.907 11.0174Z" fill="#14213D"/>
<path d="M330.127 14.6217L324.18 17.1613C324.042 16.867 323.873 16.5874 323.677 16.3269C323.127 15.6417 322.421 15.0933 321.617 14.7257C320.812 14.3581 319.931 14.1816 319.044 14.2105C314.965 14.2105 312.901 17.8386 312.766 21.4667C312.631 25.0948 314.965 28.7229 319.044 28.7229C319.931 28.7547 320.813 28.5795 321.618 28.2117C322.423 27.8439 323.129 27.2939 323.677 26.6065C323.846 26.3526 324.002 26.0902 324.143 25.8205L330.127 28.3601C329.719 29.0709 329.25 29.7466 328.727 30.3798C327.522 31.7302 326.03 32.8021 324.357 33.5192C322.683 34.2363 320.869 34.5807 319.044 34.5279C317.224 34.5925 315.411 34.2531 313.742 33.5351C312.072 32.8171 310.588 31.7387 309.399 30.3798C307.325 27.8605 306.232 24.696 306.315 21.4546C306.242 18.1963 307.333 15.016 309.399 12.469C310.599 11.1228 312.085 10.0531 313.752 9.3362C315.419 8.61926 317.226 8.27259 319.044 8.32083C320.867 8.28208 322.676 8.63287 324.348 9.34901C326.02 10.0652 327.513 11.1296 328.727 12.469C329.27 13.1352 329.74 13.8569 330.127 14.6217Z" fill="#14213D"/>
<path d="M285.206 23.7399C285.532 25.1811 286.345 26.4709 287.512 27.3981C288.679 28.3252 290.132 28.8348 291.632 28.8434C292.909 28.9297 294.19 28.7259 295.374 28.2478C296.559 27.7697 297.616 27.0301 298.464 26.0861L303.047 29.2183C301.826 30.7833 300.277 32.0712 298.505 32.9946C296.733 33.9181 294.781 34.4554 292.779 34.5702C290.778 34.6849 288.775 34.3743 286.906 33.6595C285.038 32.9448 283.347 31.8425 281.95 30.4277C279.944 27.9778 278.87 24.9149 278.915 21.7686C278.822 18.4092 279.916 15.1222 282.011 12.4685C283.25 11.1603 284.748 10.1171 286.414 9.40373C288.08 8.6904 289.877 8.32227 291.693 8.32227C293.51 8.32227 295.307 8.6904 296.973 9.40373C298.639 10.1171 300.137 11.1603 301.376 12.4685C303.944 15.5041 304.877 19.1926 304.374 23.7036L285.206 23.7399ZM291.632 14.1858C290.216 14.1523 288.827 14.5681 287.67 15.3718C286.512 16.1754 285.649 17.3243 285.206 18.6484H297.665C297.307 17.35 296.519 16.2062 295.427 15.3979C294.334 14.5896 292.999 14.1631 291.632 14.1858Z" fill="#14213D"/>
<path d="M276.986 14.2219H269.687V22.9778C269.687 25.3965 269.773 28.4441 272.87 28.7344C274.241 28.813 275.615 28.813 276.986 28.7344V34.5031C272.686 34.9264 266.825 34.8054 264.539 30.5243C263.553 28.2945 263.132 25.8627 263.311 23.4373V14.2098H259.01V8.35647H263.311V0.0722656H269.675V8.35647H276.974L276.986 14.2219Z" fill="#14213D"/>
<path d="M250.79 8.32031H257.155V34.6121H250.79V8.32031Z" fill="#14213D"/>
<path d="M250.79 0.0722656H257.155V5.5991H250.79V0.0722656Z" fill="#EF7D00"/>
<path d="M244.708 8.35656C246.148 8.28047 247.588 8.52005 248.922 9.058V15.1049C245.826 13.8955 242.201 13.6052 240.027 15.8668C238.892 17.1688 238.299 18.845 238.368 20.5591V34.612H231.979V8.35656H238.368V11.1139C240.039 9.42196 242.312 8.43359 244.708 8.35656Z" fill="#14213D"/>
<path d="M230.111 34.612H223.796V31.5765C221.264 34.4306 219.397 34.612 216.546 34.612C211.447 34.612 207.515 31.5644 207.515 26.9204C207.4 25.4218 207.768 23.9257 208.567 22.6448C209.365 21.3638 210.554 20.3632 211.963 19.7851C215.145 18.3581 220.478 17.8018 223.796 17.3664C223.378 15.5644 221.83 14.2825 218.881 14.2825C216.557 14.2681 214.31 15.0944 212.565 16.6045L208.879 12.4563C210.25 11.1199 211.88 10.0684 213.672 9.36407C215.464 8.65979 217.382 8.31717 219.311 8.35657C222.009 8.42297 224.606 9.38148 226.683 11.0777C227.816 12.0803 228.703 13.3228 229.278 14.7116C229.852 16.1004 230.099 17.5994 230 19.0958L230.111 34.612ZM222.948 26.606C223.654 25.2752 223.948 23.7701 223.796 22.2764C222.297 22.5546 219.815 23.0625 217.431 23.5705C215.514 23.9817 213.745 24.8645 213.745 26.5213C213.745 28.1782 215.342 28.7829 217.431 28.7829C219.864 28.7224 221.83 28.2024 222.948 26.606Z" fill="#14213D"/>
<path fill-rule="evenodd" clip-rule="evenodd" d="M180.889 21.14C180.889 28.3115 185.804 34.6003 193.176 34.6003C195.345 34.6181 197.475 34.0311 199.32 32.9072V35.5315C199.366 36.1349 199.247 36.7396 198.975 37.2822C198.703 37.8248 198.287 38.2853 197.772 38.6154C196.62 39.3606 195.267 39.7443 193.889 39.7159C192.885 39.7144 191.901 39.4471 191.038 38.9419C190.483 38.5542 190.021 38.0503 189.687 37.4665L183.789 40.2722C184.932 42.1044 186.587 43.5738 188.556 44.505C190.231 45.1985 192.023 45.5759 193.84 45.6177C196.333 45.7286 198.809 45.1683 201.003 43.9971C204.185 42.2556 205.684 39.4862 205.684 35.6162V8.3569H199.32V9.94117C197.451 8.88531 195.331 8.33847 193.176 8.3569C186.025 8.3569 180.889 13.9442 180.889 21.14ZM193.176 14.2344C196.936 14.2344 199.32 17.4877 199.32 21.14C199.32 24.7923 197.28 28.6865 193.176 28.6865C189.072 28.6865 187.34 24.9011 187.34 21.14C187.34 17.3788 189.441 14.2344 193.152 14.2344H193.176Z" fill="#14213D"/>
<path d="M166.108 34.6001C158.416 34.6001 153.231 28.3114 153.231 21.1398C153.231 19.4722 153.565 17.821 154.213 16.2803C154.862 14.7397 155.812 13.3398 157.01 12.1607C158.208 10.9815 159.63 10.0462 161.195 9.40802C162.761 8.76986 164.438 8.44141 166.133 8.44141C167.827 8.44141 169.504 8.76986 171.07 9.40802C172.635 10.0462 174.057 10.9815 175.255 12.1607C176.453 13.3398 177.404 14.7397 178.052 16.2803C178.7 17.821 179.034 19.4722 179.034 21.1398C179.022 28.3114 173.763 34.6001 166.108 34.6001ZM172.497 21.1398C172.497 17.5117 170.04 14.2343 166.108 14.2343C162.176 14.2343 159.731 17.4996 159.731 21.1398C159.731 24.78 161.93 28.6863 166.157 28.6863C170.384 28.6863 172.497 24.9131 172.497 21.1398Z" fill="#14213D"/>
<path d="M138.733 0V28.771H153.231V34.6485H132.343V0H138.733Z" fill="#14213D"/>
<path d="M346.494 47.9882C346.056 47.9956 345.622 47.9098 345.221 47.7365C344.82 47.5632 344.462 47.3067 344.171 46.9844C343.673 46.381 343.411 45.6213 343.434 44.8438C343.413 44.063 343.675 43.3003 344.171 42.6911C344.463 42.371 344.822 42.1167 345.222 41.9456C345.623 41.7744 346.057 41.6905 346.494 41.6994C346.931 41.6872 347.365 41.7697 347.767 41.941C348.168 42.1124 348.526 42.3685 348.816 42.6911C349.301 43.3048 349.564 44.0602 349.564 44.8378C349.564 45.6153 349.301 46.3707 348.816 46.9844C348.528 47.3099 348.17 47.5687 347.769 47.7422C347.367 47.9157 346.932 47.9997 346.494 47.9882ZM347.612 46.0774C347.839 45.7026 347.959 45.2742 347.959 44.8378C347.959 44.4013 347.839 43.9729 347.612 43.5981C347.48 43.4324 347.309 43.2999 347.115 43.2116C346.92 43.1232 346.707 43.0817 346.494 43.0902C346.281 43.0816 346.07 43.1233 345.878 43.2116C345.685 43.3 345.517 43.4326 345.388 43.5981C345.17 43.9762 345.056 44.4033 345.056 44.8378C345.056 45.2722 345.17 45.6993 345.388 46.0774C345.519 46.2407 345.688 46.3717 345.88 46.4599C346.072 46.548 346.282 46.591 346.494 46.5853C346.701 46.5855 346.906 46.5399 347.093 46.452C347.28 46.3641 347.445 46.2361 347.575 46.0774H347.612Z" fill="#14213D"/>
<path d="M341.407 39.7041H342.93V41.0344H341.407V39.7041ZM341.407 41.6875H342.93V47.9883H341.407V41.6875Z" fill="#14213D"/>
<path d="M340.94 42.8606H339.195V45.1826C339.158 45.528 339.208 45.8771 339.343 46.1984C339.412 46.2988 339.503 46.3832 339.61 46.4458C339.716 46.5084 339.834 46.5478 339.957 46.5612C340.284 46.5968 340.613 46.5968 340.94 46.5612V47.9157C340.357 48.0424 339.753 48.0424 339.171 47.9157C338.915 47.8674 338.673 47.7657 338.462 47.6176C338.25 47.4695 338.072 47.2783 337.942 47.0571C337.708 46.5027 337.611 45.9018 337.659 45.3035V42.8847H336.664V41.6754H337.696V39.7041H339.22V41.6996H340.964L340.94 42.8606Z" fill="#14213D"/>
<path d="M336.664 43.1995L335.239 43.8042L335.116 43.5986C334.981 43.4388 334.812 43.3101 334.621 43.2219C334.43 43.1336 334.221 43.0878 334.01 43.0878C333.799 43.0878 333.59 43.1336 333.399 43.2219C333.208 43.3101 333.039 43.4388 332.904 43.5986C332.677 43.9734 332.557 44.4018 332.557 44.8382C332.557 45.2747 332.677 45.7031 332.904 46.0779C333.041 46.234 333.211 46.3593 333.402 46.4452C333.593 46.531 333.8 46.5755 334.01 46.5755C334.22 46.5755 334.427 46.531 334.618 46.4452C334.809 46.3593 334.979 46.234 335.116 46.0779L335.226 45.8844L336.664 46.489C336.561 46.6617 336.446 46.8273 336.32 46.9849C336.031 47.3053 335.675 47.56 335.276 47.7312C334.877 47.9025 334.445 47.9862 334.01 47.9766C333.574 47.9904 333.141 47.9086 332.741 47.737C332.342 47.5655 331.986 47.3086 331.7 46.9849C331.215 46.3712 330.951 45.6158 330.951 44.8382C330.951 44.0607 331.215 43.3053 331.7 42.6916C331.986 42.3673 332.341 42.1099 332.741 41.9383C333.141 41.7667 333.574 41.6853 334.01 41.6999C334.445 41.6886 334.878 41.7716 335.277 41.943C335.676 42.1143 336.032 42.3699 336.32 42.6916C336.453 42.8483 336.568 43.0186 336.664 43.1995Z" fill="#14213D"/>
<path d="M328.923 41.6875H330.52V47.9883H329.181V47.166C329.181 47.166 329.12 47.166 329.107 47.2506C328.702 47.6782 328.141 47.9304 327.547 47.9521C327.182 47.995 326.812 47.9599 326.462 47.8493C326.112 47.7387 325.791 47.5551 325.52 47.3111C324.959 46.5596 324.721 45.6215 324.856 44.6988V41.6875H326.404V44.6746C326.351 45.2236 326.49 45.774 326.797 46.2347C326.922 46.3575 327.072 46.4524 327.238 46.5129C327.403 46.5734 327.58 46.5982 327.756 46.5855C328.011 46.5779 328.258 46.4981 328.468 46.3557C328.712 46.1672 328.875 45.8951 328.923 45.5938C328.972 45.2168 328.992 44.8369 328.985 44.457L328.923 41.6875Z" fill="#14213D"/>
<path d="M323.32 41.7112C323.664 41.6882 324.008 41.742 324.328 41.8684V43.2592C323.954 43.1284 323.556 43.0749 323.161 43.102C322.797 43.1174 322.451 43.2638 322.19 43.5132C321.92 43.8261 321.779 44.2277 321.797 44.6379V47.9879H320.261V41.7112H321.797V42.1587C322.251 41.8709 322.78 41.7158 323.32 41.7112Z" fill="#14213D"/>
<path d="M319.794 42.8606H318.049V45.1826C318.012 45.528 318.063 45.8771 318.197 46.1984C318.266 46.2988 318.358 46.3832 318.464 46.4458C318.57 46.5084 318.688 46.5478 318.811 46.5612C319.138 46.597 319.467 46.597 319.794 46.5612V47.9157C319.211 48.0424 318.607 48.0424 318.025 47.9157C317.769 47.8689 317.526 47.7678 317.314 47.6196C317.102 47.4713 316.925 47.2794 316.796 47.0571C316.558 46.5037 316.457 45.9028 316.501 45.3035V42.8847H315.469V41.6754H316.501V39.7041H318.025V41.6996H319.769L319.794 42.8606Z" fill="#14213D"/>
<path d="M315.444 43.4286L314.019 43.7914C313.927 43.5423 313.754 43.3298 313.528 43.1867C313.29 43.07 313.031 43.0041 312.766 42.9932C312.547 42.9864 312.33 43.0235 312.127 43.102C311.979 43.102 311.807 43.3076 311.807 43.4649C311.807 43.6221 311.807 43.6825 312.041 43.7551L312.471 43.8881L313.589 44.1905C314.03 44.2818 314.447 44.4586 314.818 44.7105C315.041 44.8707 315.224 45.0796 315.352 45.3209C315.48 45.5621 315.549 45.8292 315.555 46.1013C315.554 46.4011 315.474 46.6956 315.323 46.9562C315.173 47.2168 314.956 47.4347 314.695 47.5888C314.089 47.9151 313.396 48.0496 312.71 47.9738C312.024 47.8981 311.378 47.6158 310.861 47.1655C310.543 46.7973 310.324 46.3566 310.222 45.8836L311.648 45.545C311.667 45.7977 311.756 46.0404 311.906 46.2464C312.066 46.402 312.259 46.5215 312.472 46.5967C312.684 46.6719 312.91 46.7009 313.134 46.6818C313.422 46.681 313.705 46.6104 313.958 46.4762C314.026 46.4388 314.083 46.3846 314.124 46.3189C314.165 46.2532 314.188 46.1783 314.191 46.1013C314.187 46.0134 314.155 45.9288 314.1 45.8595C314.045 45.7901 313.97 45.7394 313.884 45.7143L313.319 45.545C312.164 45.2184 311.967 45.1701 311.783 45.0975C311.406 44.9621 311.068 44.7379 310.8 44.4445C310.655 44.233 310.56 43.9922 310.522 43.7398C310.484 43.4875 310.504 43.2299 310.581 42.9862C310.657 42.7425 310.789 42.5188 310.965 42.3317C311.141 42.1445 311.357 41.9986 311.598 41.9048C312.018 41.7332 312.471 41.6548 312.925 41.675C313.373 41.6772 313.815 41.7806 314.216 41.9773C314.79 42.2986 315.227 42.8143 315.444 43.4286Z" fill="#14213D"/>
<path d="M309.092 42.3288C309.638 43.082 309.871 44.0122 309.743 44.9289V47.9886H308.207V45.0136C308.26 44.4592 308.117 43.9039 307.802 43.4414C307.676 43.3208 307.525 43.2282 307.36 43.1698C307.195 43.1114 307.018 43.0885 306.843 43.1028C306.587 43.1044 306.338 43.1847 306.131 43.3326C305.887 43.521 305.725 43.7931 305.676 44.0945C305.627 44.4714 305.606 44.8514 305.615 45.2313V48.0007H304.079V41.6999H305.615V42.1957C306.126 41.8329 306.746 41.6489 307.377 41.673C308.007 41.6971 308.61 41.9279 309.092 42.3288Z" fill="#14213D"/>
<path d="M355.008 42.3288C355.567 43.0765 355.805 44.0101 355.672 44.9289V47.9886H354.124V45.0136C354.177 44.4592 354.033 43.9039 353.718 43.4414C353.594 43.3224 353.445 43.2307 353.282 43.1723C353.119 43.114 352.945 43.0903 352.772 43.1028C352.513 43.1066 352.26 43.1866 352.047 43.3326C351.808 43.5231 351.65 43.7949 351.605 44.0945C351.545 44.4704 351.52 44.8509 351.531 45.2313V48.0007H349.995V41.6999H351.531V42.1957C352.043 41.8329 352.663 41.6489 353.293 41.673C353.923 41.6971 354.527 41.9279 355.008 42.3288Z" fill="#14213D"/>
<path d="M300.516 47.988C300.078 47.9994 299.644 47.9165 299.243 47.7452C298.842 47.5739 298.484 47.3183 298.193 46.9963C297.692 46.3898 297.43 45.6252 297.456 44.8436C297.434 44.0627 297.696 43.2996 298.193 42.6909C298.486 42.3715 298.844 42.1176 299.245 41.9465C299.646 41.7754 300.079 41.6911 300.516 41.6993C300.951 41.688 301.383 41.771 301.783 41.9423C302.182 42.1137 302.538 42.3692 302.826 42.6909C303.336 43.2935 303.602 44.0598 303.575 44.8436C303.599 45.6269 303.333 46.392 302.826 46.9963C302.538 47.3187 302.182 47.5747 301.783 47.7461C301.384 47.9175 300.951 48.0001 300.516 47.988ZM301.621 46.0772C301.865 45.721 301.986 45.2969 301.965 44.8678C301.98 44.4394 301.86 44.017 301.621 43.6584C301.483 43.502 301.312 43.3766 301.12 43.2906C300.929 43.2047 300.72 43.1602 300.509 43.1602C300.299 43.1602 300.09 43.2047 299.899 43.2906C299.707 43.3766 299.536 43.502 299.397 43.6584C299.163 44.0181 299.047 44.4406 299.066 44.8678C299.042 45.2955 299.158 45.7196 299.397 46.0772C299.535 46.2354 299.705 46.3625 299.897 46.4496C300.089 46.5367 300.298 46.5818 300.509 46.5818C300.721 46.5818 300.93 46.5367 301.122 46.4496C301.314 46.3625 301.484 46.2354 301.621 46.0772Z" fill="#14213D"/>
<path d="M296.952 43.1989L295.527 43.8156C295.498 43.7408 295.457 43.6713 295.404 43.61C295.273 43.4467 295.104 43.3157 294.912 43.2276C294.72 43.1394 294.51 43.0964 294.298 43.1021C294.088 43.0964 293.88 43.1395 293.69 43.2277C293.5 43.3159 293.334 43.4469 293.205 43.61C292.964 43.9683 292.84 44.39 292.848 44.8194C292.837 45.2491 292.962 45.6716 293.205 46.0288C293.333 46.192 293.499 46.3222 293.69 46.4086C293.88 46.4949 294.089 46.5347 294.298 46.5246C294.509 46.5346 294.72 46.4949 294.912 46.4086C295.105 46.3224 295.273 46.1922 295.404 46.0288C295.45 45.974 295.487 45.9128 295.515 45.8474L296.952 46.4521C296.858 46.6233 296.746 46.7853 296.621 46.9358C296.332 47.2598 295.974 47.5167 295.573 47.6882C295.171 47.8597 294.736 47.9414 294.298 47.9275C293.862 47.9439 293.428 47.8633 293.028 47.6916C292.628 47.5199 292.273 47.2615 291.988 46.9358C291.491 46.332 291.229 45.5726 291.251 44.7952C291.236 44.0152 291.496 43.2542 291.988 42.6425C292.277 42.3221 292.633 42.0675 293.032 41.8962C293.431 41.725 293.863 41.6412 294.298 41.6509C294.842 41.6142 295.384 41.7372 295.857 42.0041C296.329 42.2711 296.71 42.6701 296.952 43.1505V43.1989Z" fill="#14213D"/>
</g>
<defs>
<clipPath id="clip0_56_75">
<rect width="356" height="48" fill="white"/>
</clipPath>
</defs>
</svg>
